<?xml version="1.0" encoding="utf-8"?>
<!-- Generator: Adobe Illustrator 24.1.1, SVG Export Plug-In . SVG Version: 6.00 Build 0)  -->
<svg version="1.1" id="Layer_1" xmlns="http://www.w3.org/2000/svg" xmlns:xlink="http://www.w3.org/1999/xlink" x="0px" y="0px"
	 viewBox="0 0 3897.4 3897.4" style="enable-background:new 0 0 3897.4 3897.4;" xml:space="preserve">
<style type="text/css">
	.st0{clip-path:url(#SVGID_2_);}
	.st1{clip-path:url(#SVGID_4_);}
</style>
<g>
	<defs>
		<rect id="SVGID_1_" x="-43.7" y="-19.4" width="1999" height="3485"/>
	</defs>
	<clipPath id="SVGID_2_">
		<use xlink:href="#SVGID_1_"  style="overflow:visible;"/>
	</clipPath>
	<g class="st0">
		<path d="M2921.3,3327.2V684.3c0-6.3-0.6-12.5-1.9-18.7c-0.9-3.9-2.1-7.7-3.5-11.4c-0.7-2-1.1-4.2-1.9-6.2c-1.8-4.1-4-8.1-6.4-11.9
			c-3.5-7-8.7-13-14.1-18.6c0,0-566.1-566.1-566.1-566.1c-4.4-4.4-9.2-8.3-14.3-11.8c-5.4-2.9-10.6-6.3-16.2-8.7
			c-2-0.8-4.1-1.2-6.2-1.9c-3.7-1.4-7.6-2.6-11.4-3.5c-6.1-1.2-12.4-1.8-18.7-1.9c0,0-1887.9,0-1887.9,0
			c-52.1,0-94.4,42.2-94.4,94.4c0,0,0,3209.2,0,3209.3c0,52.1,42.3,94.4,94.4,94.4c0,0,2454.2,0,2454.2,0
			C2879.1,3421.6,2921.3,3379.3,2921.3,3327.2z M2354.3,345.6l244,244h-244V345.6z M2732.3,3232.6h-2265v-3020h1699
			c0,0,0,471.6,0,471.6c0,52.1,42.2,94.4,94.3,94.4c0,0,471.7,0,471.7,0L2732.3,3232.6z"/>
		<path d="M1249.3,995.3l-310.8,310.8l-122-122c-92-85-218.5,41.4-133.5,133.4l0,0c0,0,188.8,188.8,188.8,188.8
			c36.8,36.9,96.6,36.9,133.4,0c0,0,377.6-377.6,377.6-377.6C1467,1036.9,1341.4,911,1249.3,995.3L1249.3,995.3z"/>
		<path d="M1249.6,1750.4l-310.8,310.8c0,0-122-122-122-122c-92-85-218.5,41.5-133.5,133.5l0,0c0,0,188.8,188.8,188.8,188.8
			c36.8,36.9,96.6,36.9,133.4,0c0,0,377.6-377.6,377.6-377.6C1467.3,1792.1,1341.7,1666.1,1249.6,1750.4L1249.6,1750.4z"/>
		<path d="M1249.6,2505.5l-310.8,310.8c0,0-122-122-122-122c-36.9-36.9-96.6-36.9-133.5,0c-36.9,36.9-36.9,96.6,0,133.5
			c0,0,188.8,188.8,188.8,188.8c36.8,36.9,96.6,36.9,133.5,0c0,0,377.6-377.5,377.6-377.5c36.7-37.1,36.4-96.8-0.7-133.5
			C1345.6,2469,1286.4,2469,1249.6,2505.5L1249.6,2505.5z"/>
		<path d="M1599.3,1062.2c0,52.2,42.3,94.4,94.5,94.4c0,0,756,0,756,0c52.2,0.5,94.9-41.3,95.5-93.5c0.5-52.2-41.3-94.9-93.5-95.5
			c-0.5-0.3-757,0.2-758,0C1641.6,967.6,1599.3,1010,1599.3,1062.2z"/>
		<path d="M1693.7,1534.6c0,0,378,0,378,0c124-6,124.1-182.9,0-189c0,0-378,0-378,0c-52.2,0.5-94.1,43.3-93.5,95.5
			C1600.7,1492.5,1642.2,1534.1,1693.7,1534.6z"/>
		<path d="M2449.4,1722.6c0,0-755,0-755,0c-50.1,0-92.3,38.6-95.3,88.6c-3.3,54.9,40.2,100.4,94.3,100.4c0,0,755,0,755,0
			C2574.6,1906.9,2575.3,1727.9,2449.4,1722.6z"/>
		<path d="M1693.7,2289.6c0,0,378,0,378,0c124-6,124.1-182.9,0-189c0,0-378,0-378,0c-52.2,0.5-94.1,43.3-93.5,95.5
			C1600.7,2247.5,1642.2,2289.1,1693.7,2289.6z"/>
		<path d="M2449.4,2477.6c0,0-756,0-756,0c-52.2,0.5-94.1,43.3-93.5,95.5c0.5,51.4,42.1,93,93.5,93.5c0,0,756,0,756,0
			C2576,2662.6,2576.3,2481.7,2449.4,2477.6z"/>
		<path d="M2071.7,2855.6c0,0-378,0-378,0c-124,6-124.1,182.9,0,189c0,0,378,0,378,0c52.2-0.5,94.1-43.3,93.5-95.5
			C2164.7,2897.7,2123.1,2856.1,2071.7,2855.6z"/>
	</g>
</g>
<g>
	<defs>
		<rect id="SVGID_3_" x="1953.3" y="23.6" width="1685.7" height="3858.7"/>
	</defs>
	<clipPath id="SVGID_4_">
		<use xlink:href="#SVGID_3_"  style="overflow:visible;"/>
	</clipPath>
	<g class="st1">
		<path d="M3232.5,23.6H651C433.3,23.6,256,200.8,256,420.4v2604.6c0,219.6,177.2,396.9,394.9,396.9h2184.7l-102.1-356.4
			c119.4,111.2,360.1,334.6,479.7,445l414.2,366V420.4C3627.4,200.8,3450.2,23.6,3232.5,23.6z M2488.9,2539.6
			c0,0-69.4-82.8-127.1-156.1c252.4-71.3,348.7-229.3,348.7-229.3c-79,52-154.1,88.6-221.6,113.7
			c-400.2,170-844.7,122.8-1202.2-67.4c-5.8-3.9-11.6-5.8-17.3-9.6c-2.9-1.4-5.5-3.4-7.7-5.8c-34.7-19.3-53.9-32.8-53.9-32.8
			s92.5,154.1,337.1,227.3c-57.8,73.2-129.1,159.9-129.1,159.9c-425.8-13.5-587.6-292.8-587.6-292.8
			c0-620.3,277.4-1123.2,277.4-1123.2C1383,915.5,1647,921.3,1647,921.3l19.3,23.1c-346.8,100.2-506.7,252.4-506.7,252.4
			c180.6-103.2,452.2-173.9,551-177.2c11.6-1.9,21.2-3.8,32.8-3.8c343.6-39.5,639.1,6,969,181.1c0,0-152.2-144.5-479.7-244.7
			l27-30.8c0,0,263.9-5.8,541.3,202.3c0,0,277.4,502.8,277.4,1123.2C3078.4,2246.8,2914.6,2526.1,2488.9,2539.6L2488.9,2539.6z
			 M1593,1639.9c-109.8,0-196.5,96.3-196.5,213.8c11.4,283.8,382.9,283.6,393,0C1791.5,1736.2,1702.8,1639.9,1593,1639.9
			 M2296.2,1639.9c-109.8,0-196.5,96.3-196.5,213.8c11.4,283.8,382.9,283.6,393,0C2492.7,1736.2,2406,1639.9,2296.2,1639.9"/>
	</g>
</g>
</svg>
