<svg xmlns="http://www.w3.org/2000/svg" xmlns:xlink="http://www.w3.org/1999/xlink" viewBox="0 0 146.32 144"><defs><style>.a,.f{fill:none;}.b{clip-path:url(#a);}.c{fill:url(#b);}.d{fill:url(#c);}.e{fill:url(#d);}.f{stroke:#fff;stroke-width:2.13px;}.g{fill:#fff;}</style><clipPath id="a" transform="translate(-0.02)"><ellipse class="a" cx="72.02" cy="72" rx="72.02" ry="72"/></clipPath><linearGradient id="b" x1="72.02" y1="165.54" x2="72.02" y2="259.26" gradientTransform="matrix(1, 0, 0, -1.54, -0.02, 399.26)" gradientUnits="userSpaceOnUse"><stop offset="0" stop-color="#2adce4"/><stop offset="0.25" stop-color="#31bcdc"/><stop offset="0.57" stop-color="#3999d3"/><stop offset="0.83" stop-color="#3d84ce"/><stop offset="1" stop-color="#3f7ccc"/></linearGradient><linearGradient id="c" x1="24.27" y1="60.08" x2="24.27" y2="60.08" gradientTransform="matrix(1, 0, 0, -1, 0, 146)" gradientUnits="userSpaceOnUse"><stop offset="0" stop-color="#8fecff"/><stop offset="0.01" stop-color="#92ecff"/><stop offset="0.22" stop-color="#b9f3ff"/><stop offset="0.43" stop-color="#d7f8ff"/><stop offset="0.63" stop-color="#edfcff"/><stop offset="0.82" stop-color="#fbfeff"/><stop offset="1" stop-color="#fff"/></linearGradient><linearGradient id="d" x1="73.18" y1="2" x2="73.18" y2="88.01" xlink:href="#c"/></defs><g class="b"><rect class="c" width="144" height="144"/><path class="d" d="M24.27,85.92" transform="translate(-0.02)"/><path class="e" d="M146.32,58.1c0-.05-.14-.08-.22-.11-.49.16-1,.33-1.47.47l-7.45,2-7,1.88-6.32,1.75L118,65.71l-7.45,2.05-5.89,1.6-7.5,2.08-.86.2V69.23q0-3.7.09-7.41a1.4,1.4,0,0,1,1.2-1.45,5.16,5.16,0,0,1,.52.09,1,1,0,0,0,.53-.07c-1.36-.47-2.35.19-2.37,1.19,0,1.68-.08,3.36-.12,5s-.06,3.21-.11,4.81c0,.12-.11.24-.23.49-.35-1,0-2-.49-2.8a16,16,0,0,0,.15,2.19c.06.46-.14.63-.53.73l-3.36,1-7.4,2-9.5,2.63L69.07,79.2l-.26,0v-.5q0-4.32.07-8.64A1.27,1.27,0,0,1,70,68.73a1.15,1.15,0,0,1,.52.06.73.73,0,0,0,.43-.11,1.49,1.49,0,0,0-2,.63,1.46,1.46,0,0,0-.17.65c-.08,3-.15,5.91-.22,8.86a1.62,1.62,0,0,1-.11.58c-.49-.9.16-2.07-.59-2.81.07.85.16,1.78.2,2.7,0,.11-.25.29-.41.33-1.18.35-2.37.67-3.56,1L55.54,83c-1.83.52-3.66,1-5.49,1.58-1.13.33-2.24.71-3.36,1.06-.19.06-.39.1-.62.16l-.2-1.8h-.1c0,.52.11,1,.11,1.55a.6.6,0,0,1-.34.45c-1.15.39-2.3.74-3.53,1.13V79.3c0-.86.26-1.31.91-1.54a2.15,2.15,0,0,1,.62,0A1.35,1.35,0,0,0,44,77.7a1.45,1.45,0,0,0-2,.57,1.43,1.43,0,0,0-.18.78c0,2.62-.06,5.24-.09,7.86v.26L31.21,90.91,31,90.45c.29.54-.06.67-.48.83-1.91.75-3.8,1.52-5.7,2.28l-.52.18V86c-.07.68-.16,1.37-.18,2,0,1.7,0,3.4-.07,5.1v.7A72.86,72.86,0,0,0,12.4,99.43l.43-6.75H12.7c0,.51-.11,1-.15,1.52-.12,1.69-.23,3.39-.37,5.08a.65.65,0,0,1-.26.44c-1.42.88-2.85,1.74-4.31,2.63v-1.58c-1-.28-1.35-.15-1.25.52h1c.28.82.2,1.1-.43,1.58l-1.36,1v-4.6a5,5,0,0,1,0-.77c.07-.47.17-.93.25-1.36a1.28,1.28,0,0,0-.38,1v5.43a.91.91,0,0,1-.19.59c-1,1-2,2-3,2.91v-1.76h.34v-.11c-.3,0-.38-.17-.38-.47a13.48,13.48,0,0,0-.12-2.54v2c0,.47.09,1-.34,1.34l.33-.17c-.08,1.1.23,2.17-.61,3.1l.21-2.86c-.08.16-.23.32-.24.48-.12,1.63-.23,3.27-.32,4.9a7,7,0,0,0,.51,3.19,2.16,2.16,0,0,1,.1.44l-.56.09v1.19a4.15,4.15,0,0,1,.73.1c1,.18,1.35.57,1.32,1.54-.07,1.93-.13,3.87-.27,5.79-.33,4.25-.71,8.49-1.07,12.74,0,.31-.08.62-.12,1l-1,0-.06.9-.68.1v1.66H1c.24,0,.51-.09.63.29,0,.11.43.14.66.14l7.26.2a.69.69,0,0,1,.67.29c.22.29.76.3,1.17.3,3.43,0,6.87,0,10.3.09,1.07,0,2.13.11,3.2.16l1.2.06a5.26,5.26,0,0,0,.58-.67,4.89,4.89,0,0,0,.3-.75c.07-.16.14-.32.22-.47a1.49,1.49,0,0,1,.19.45v2l20.32.29v-2.6H46.36v-1.54h-2.5l-.21-8.18c1.46,0,5.86.69,6.15,1l-.64.19c.18.2.28.42.43.47a1.08,1.08,0,0,1,.88,1.11c-.07,1.87-.18,3.75-.27,5.51l-1.15.69v.81h5.71c.2-.84,0-1.27-1-1.35,0-.48-.09-1-.11-1.46,0-1.2-.06-2.4,0-3.6,0-.9.32-1.21,1.25-1.3l.11-.57c1.12-.11,7.28.65,7.58,1l-.48.14V133c.86.22,1,.36,1,1.27,0,1.36-.09,2.72-.14,4.08l-.66.06c0,.47-.9.56-.43,1.28H64.4V140a6.76,6.76,0,0,1-.9,0c-.45,0-.6.13-.58.57v2.87h25v-3.2H86.45v-1.31H84.83V137.1H82.49v-3l6.69.3-.35.42a1.56,1.56,0,0,1,.37.31,2.25,2.25,0,0,1,.44.89c.06.9,0,1.8,0,2.67-1.33.23-1.41.3-1.32,1.16H93.4c.2-.73,0-1-1.16-1.11v-3c0-.17.39-.33.7-.4l.13-.65,5.84.49-.31.27c-.25.23-.19.38.09.58s.57.43.6.68a14.74,14.74,0,0,1,0,1.88,13.12,13.12,0,0,0-1.33.59c-.09,0,0,.34,0,.57h5c.17-.51-.24-.91-1.14-1a21.87,21.87,0,0,1,0-2.29c0-.22.44-.4.68-.6l.14.12.14-.57L108,136c-.15.18-.33.32-.33.44s.24.19.35.31.33.34.35.52v1.48c-1.22.24-1.26.28-1.18,1.12h5v-.67l-1.28-.52a10,10,0,0,1,0-1.34c0-.2.24-.38.4-.55a4.26,4.26,0,0,1,.54-.41l0-.14L133.54,138l-.06,1.17h-2.1v2.48h-1.83V144h16.78V58.48A1.61,1.61,0,0,0,146.32,58.1ZM5.21,121.1c-.1,1.29-.22,2.58-.33,3.86-.17,2-.35,3.93-.51,5.9s-.33,3.94-.5,5.9c0,.15-.17.28-.26.42l-.22-.13.32-4.47c.17-2.43.35-4.86.51-7.29.1-1.44.16-2.88.27-4.31,0-.19.19-.51.3-.51.39,0,.44.31.42.62ZM6,137.17v-2.32c.27-4.39.57-8.77.84-13.15,0-.49.26-.73.8-.87L8,137.17Zm3.22-10.84h0v-2.92h.06Zm1.38-.55h-.08V124h.08ZM17,110.91c.06-.8.2-1.6.33-2.4a.59.59,0,0,1,.27-.35c.57-.35,1.15-.67,1.73-1a1.7,1.7,0,0,1,.85,1.43l.27,9.67a4.1,4.1,0,0,1-.06.49l.14,2.78-.22.07a1.86,1.86,0,0,1-.24-.56v-2l-.18,2.24h-.12a1.46,1.46,0,0,1-.16-.44,18.47,18.47,0,0,0-.11-2.1v2.44c-1-.54-1.94-1-2.84-1.53a.66.66,0,0,1-.21-.51c.21-2.71.39-5.47.6-8.23Zm-4,20.38a2.68,2.68,0,0,1-.07.27c-.1-2.49-.2-4.91-.3-7.32,0-.3,0-.53.39-.51s.63.12.6.51c-.17,2.36-.39,4.71-.63,7Zm1.17-13.47-.16.1a5.62,5.62,0,0,1-.91-1.4,12.9,12.9,0,0,1-.12-1.76v1.75l-.14.06a2.11,2.11,0,0,1-.27-.59c-.06-.6-.08-1.21-.08-1.82A1.58,1.58,0,0,1,14,112.48a1.52,1.52,0,0,1,.67.1Zm4.16,9.62c-.11,2.35-.3,4.7-.45,7.05-.06.85-.13,1.69-.17,2.54,0,.38-.15.52-.54.5s-1.08,0-1.66,0c-.23-4.48.32-8.87.53-13.39l1.3.44-.61.31.06.64c1.38.31,1.63.56,1.57,1.91Zm.72,10v-2.32c.11-2.17.23-4.35.36-6.52a6,6,0,0,1,.23-1.52,3.51,3.51,0,0,1,.67-.91l.24.12.29,11.24Zm16.45-15c0-.14.15-.27.21-.38a1.09,1.09,0,0,1-.14-.38c.17-3.19.34-6.37.53-9.56.13-2.25.25-4.5.42-6.74.11-1.44.26-2.89.46-4.32a1.89,1.89,0,0,1,.64-1,.73.73,0,0,1,1,.06l0,0a2.87,2.87,0,0,1,1,2.24,9.55,9.55,0,0,0,0,2c.54,4.16.2,8.33.35,12.5.11,3.17.13,6.35.18,9.52v.43l-2.54-.56c-.35-.08-.82-.1-1-.33s0-.67,0-1a3.32,3.32,0,0,0-.09-.89v2a4.44,4.44,0,0,1-.88-.18.55.55,0,0,1-.31-.4c0-1,.06-2,.14-3ZM27.3,137.82h-.89l-.06,1-.53.06v-.68c0-.4-.07-.61-.56-.56a16.07,16.07,0,0,1-1.7,0c-.1-2.86-.2-5.59-.3-8.32,0-.85-.07-1.7-.12-2.54,0-.45.21-.72.62-.65,1,.17,2,.43,3,.65l.11.18-.47.14v.58a1.55,1.55,0,0,1,1.46,1.65.57.57,0,0,1,0,.13c-.15,2.85-.34,5.62-.52,8.42Zm1.33-.08v-3.5c0-1.15.11-2.29.2-3.43a9.23,9.23,0,0,1,.29-1.81c.06-.21.47-.51.63-.47s.6.39.61.62c.15,2.85.24,5.7.35,8.59Zm3-6.54h-.08l.16-2.19h.2Zm.56-6c-.6-.14-1.13-.23-1.63-.39a.56.56,0,0,1-.26-.46V121h-.19v3.73l-3.55-1V121.1h-.11v2.46h-.22c-1.45-.4-1.45-.4-1.5-1.92,0-.76,0-1.51-.06-2.27l-.07-.11V123h-.15c-1.45-.3-1.45-.3-1.45-1.76-.12-3.08-.27-6.16-.34-9.24a33.08,33.08,0,0,1,.19-3.59,1.52,1.52,0,0,1,1.5-1.46c.88,0,1.32-.38,1.35-1.24a1.91,1.91,0,0,1,.11-.41l-.6-.1a.65.65,0,0,1,.2-.91.85.85,0,0,1,.22-.09c2.13-.85,4.24-1.73,6.36-2.59.64-.26,1.29-.47,1.95-.71,0,8.1-1.17,16.16-1.72,24.31Zm6.18,10.91c0,.57-.09,1.14-.15,1.82l-3.51-.16.45-9.34c1,.27,1.9.16,2.7.77l-.52.09c-.06.32-.06.51.37.57a1.15,1.15,0,0,1,.93,1.38c0,1.63-.15,3.26-.24,4.88Zm2,1.87H39.5v-3.09c.06-1.23.17-2.45.3-3.67a2.64,2.64,0,0,1,.35-.74h.19ZM77.14,96.57c.58,3.11.23,6.24.35,9.36s.14,6.28.19,9.42.11,6.31.17,9.47q.06,3.38.13,6.75v.67l-4.58-.5V129c.17-4.1.36-8.19.53-12.29q.41-10,.78-20c.62-1.43.27-3,.66-4.45a7.76,7.76,0,0,1,.34-.84,3.44,3.44,0,0,1,1.37,2.84A14.48,14.48,0,0,0,77.14,96.57Zm-3.8-17.7h0l.09-.08h0l.07-.05h0l.07,0h0a2.34,2.34,0,0,1,.62-.29A1.33,1.33,0,0,1,76,79.65a3,3,0,0,1-.51,1.61l-.59-.35a2,2,0,0,0,.31-1,.75.75,0,0,0-.75-.75.73.73,0,0,0-.25,0,1.4,1.4,0,0,0-.62.39l-.09.1-.3.33V79Zm-1.61.2a1.8,1.8,0,0,1,.61-.08h.41v1l-.3-.15h-.09a.91.91,0,0,0-.61,0,1.49,1.49,0,0,0-1,1.33A1.24,1.24,0,0,0,71,82l-.58.71a1.77,1.77,0,0,1-.51-1.3A2.59,2.59,0,0,1,71.73,79.07ZM52.66,138.33H51.28v-.72l.26-4.64v-.22c.18-.21.37-.41.56-.62.14.2.36.4.4.62a12.77,12.77,0,0,1,.14,1.75C52.67,135.77,52.66,137,52.66,138.33Zm12.34.1H63.94A10.27,10.27,0,0,1,64,137c0-.85.07-1.69.15-2.53a3.68,3.68,0,0,1,.31-.86h.23c.1.19.29.38.29.57,0,1.44,0,2.87,0,4.31Zm3.53-1.58H66.3l-.15,1.64H66v-4.33c0-.52.52-.72,1.1-.69l-.06-.75,1.69.2Zm1.58-24.56c-.25,3.63-.45,7.26-.69,10.89-.18,2.63-.39,5.26-.59,8-8.5-.85-16.88-2.23-25.31-3.55a9.25,9.25,0,0,0-.07-1.4c-.28-6.81-.57-13.61-.82-20.42a27.94,27.94,0,0,1,.2-4.19,1.8,1.8,0,0,1,1.74-1.71c1.24-.08,1.24-.11,1.4-1.34a1.49,1.49,0,0,1,.06-.5.85.85,0,0,1-.22-.09c-.17-.1-.49-.26-.47-.31.1-.26.21-.63.42-.73a11.6,11.6,0,0,1,1.71-.52c2.49-.67,5-1.35,7.47-2,1.3-.34,2.61-.65,3.92-1l7.41-1.79c1.36-.32,2.73-.64,4.1-.92a.64.64,0,0,1,.45.34,5.53,5.53,0,0,1,.26,1.46c0,1.07-.09,2.14-.12,3.21a2.19,2.19,0,0,0,.16.57,1.49,1.49,0,0,1,.07.47c-.35,5.18-.72,10.36-1.07,15.54Zm1.31-28.9S71,83.15,70.8,83l.57-.71,1.7,1.08,1.63-2.06.59.35-.57.7a15,15,0,0,0-1.3,1.78l-.32.57-.34-.37a6.53,6.53,0,0,0-1.33-.94ZM73,136.93l.16-3.55,2.63.24v.1l-.6.17.48.47c.18.18.49.35.52.56.11.66.13,1.34.18,2Zm5,0h-.68a8,8,0,0,1,.09-1.49c0-.12.19-.22.29-.32.1.12.28.24.29.37,0,.43,0,.91,0,1.41Zm13.08,2c-.19-.16-.43-.26-.43-.37,0-.83,0-1.65.06-2.48,0-.12.12-.24.18-.36h.2Zm9.31-.1v-2c0-.09.15-.17.23-.26.08.09.21.17.22.27.06.67.09,1.34.13,2Zm9.65,0h-.7c0-.42,0-.83,0-1.25,0-.14.23-.26.35-.4.11.12.3.24.32.37,0,.41,0,.83,0,1.24Zm27.43-48.45c-.11,5.06-.3,10.12-.48,15.17q-.3,8.1-.64,16.21-.22,5.7-.47,11.4c0,1.21-.12,2.43-.18,3.64-1.2,0-2.35.06-3.51,0-2.13-.13-4.26-.32-6.39-.5l-10.2-.86c-1.63-.13-3.26-.22-4.88-.35l-5.49-.48-6-.61-9.47-.76-6.89-.59-.54-.06c-.07-1.7-.15-3.38-.22-5q-.32-7.44-.62-14.89T80.9,97.82c.51-1.47.1-3,.27-4.49a2.56,2.56,0,0,1,.4-1.19,2.23,2.23,0,0,1,1-.65,2.43,2.43,0,0,1,1-.14c.47,0,.67-.21.64-.61,0-.68.31-.86.9-.84l.35-.05c-.11-.19-.16-.43-.27-.47-.46-.14-1-.21-1.47-.32V88.3l.09.07a5.37,5.37,0,0,1,.44-.51.71.71,0,0,1,.34-.16l6.15-1.28L98,84.87l8.51-1.77,9.87-2.1c2.92-.62,5.84-1.26,8.77-1.87,2.1-.44,4.21-.85,6.32-1.28,1.41-.29,2.82-.6,4.23-.86a.81.81,0,0,1,.59.22,4.64,4.64,0,0,1,1.12,3.06c.09,3.38.12,6.73,0,10.06ZM143,136.79l.5-52.51c.94,17.47,1.14,35,1.64,52.51Z" transform="translate(-0.02)"/></g><circle class="f" cx="72" cy="72" r="65.56"/><path class="g" d="M46.39,29.31a4.44,4.44,0,0,1,4.36-4.53,1.6,1.6,0,0,1,.31,0,4,4,0,0,1,3.67,2.14l-1.6.79a2.37,2.37,0,0,0-2.06-1.27,2.73,2.73,0,0,0-2.75,2.71v.17A2.74,2.74,0,0,0,50.9,32.2h.17a2.35,2.35,0,0,0,2.06-1.27l1.6.78a4,4,0,0,1-3.67,2.16,4.46,4.46,0,0,1-4.67-4.22Z" transform="translate(-0.02)"/><path class="g" d="M55,30.51a3.36,3.36,0,1,1,3.38,3.34h0A3.22,3.22,0,0,1,55,30.77Zm5,0a1.64,1.64,0,1,0-3.25-.44,1.62,1.62,0,0,0,0,.44A1.64,1.64,0,1,0,60,31,1.62,1.62,0,0,0,60,30.51Z" transform="translate(-0.02)"/><path class="g" d="M66.82,33.69v-.81a2.46,2.46,0,0,1-2,1c-1.6,0-2.81-1.21-2.81-3.33s1.2-3.34,2.81-3.34a2.44,2.44,0,0,1,2,1V24.92H68.5v8.77Zm0-2V29.39a1.82,1.82,0,0,0-1.45-.72,1.66,1.66,0,0,0-1.61,1.71.66.66,0,0,0,0,.14,1.64,1.64,0,0,0,1.45,1.83h.15A1.82,1.82,0,0,0,66.82,31.64Z" transform="translate(-0.02)"/><path class="g" d="M69.13,30.51a3.23,3.23,0,0,1,3.13-3.33h.16a3.18,3.18,0,0,1,3.2,3.16c0,.12,0,.23,0,.34V31H70.88a1.71,1.71,0,0,0,1.83,1.47,2.72,2.72,0,0,0,1.7-.63L75.13,33a4,4,0,0,1-2.62.88,3.21,3.21,0,0,1-3.38-3A1.93,1.93,0,0,1,69.13,30.51Zm3.29-2a1.53,1.53,0,0,0-1.56,1.41H74a1.46,1.46,0,0,0-1.52-1.41h-.06Z" transform="translate(-0.02)"/><path class="g" d="M76.22,33.69V24.92h3.46c2.75,0,4.65,1.75,4.65,4.39s-1.91,4.38-4.65,4.38Zm6.2-4.38A2.57,2.57,0,0,0,80,26.56h-2V32h1.59a2.62,2.62,0,0,0,2.74-2.5Z" transform="translate(-0.02)"/><path class="g" d="M88.84,33.69V33a2.64,2.64,0,0,1-2,.81,2.11,2.11,0,0,1-2.21-2v-.09a2,2,0,0,1,1.94-2.06h.27a2.61,2.61,0,0,1,2,.78v-.85c0-.64-.55-1.06-1.39-1.06a2.67,2.67,0,0,0-1.85.75l-.6-1.1a4.14,4.14,0,0,1,2.77-1c1.45,0,2.77.58,2.77,2.41v4.1Zm0-1.52v-.79a1.66,1.66,0,0,0-1.34-.55c-.66,0-1.2.34-1.2,1s.54.93,1.2.93a1.65,1.65,0,0,0,1.34-.6Z" transform="translate(-0.02)"/><path class="g" d="M91.48,34.67a1.4,1.4,0,0,0,.53.11.83.83,0,0,0,.88-.46l.24-.54-2.58-6.44h1.79L94,31.75l1.66-4.42h1.8l-3,7.39a2.3,2.3,0,0,1-2.41,1.54,3.84,3.84,0,0,1-.83-.09Z" transform="translate(-0.02)"/><path class="g" d="M41,47.4l1.09-1.55a4.1,4.1,0,0,0,3,1.27c1.1,0,1.62-.49,1.62-1,0-1.62-5.35-.49-5.35-4,0-1.55,1.34-2.83,3.52-2.83a5.17,5.17,0,0,1,3.62,1.3L47.4,42a4,4,0,0,0-2.7-1c-.84,0-1.31.36-1.31.92,0,1.46,5.34.47,5.34,3.94,0,1.7-1.23,3-3.72,3A5.37,5.37,0,0,1,41,47.4Z" transform="translate(-0.02)"/><path class="g" d="M54,48.71V48a2.77,2.77,0,0,1-2.13.88,2.23,2.23,0,0,1-2.33-2.13v-.1a2.13,2.13,0,0,1,2.08-2.18h.25A2.74,2.74,0,0,1,54,45.3v-.85c0-.68-.59-1.13-1.48-1.13a2.86,2.86,0,0,0-1.94.79l-.7-1.24a4.33,4.33,0,0,1,2.94-1.06c1.55,0,3,.61,3,2.55v4.35Zm0-1.62v-.84a1.76,1.76,0,0,0-1.42-.6c-.7,0-1.27.38-1.27,1s.57,1,1.27,1A1.77,1.77,0,0,0,54,47.09Z" transform="translate(-0.02)"/><path class="g" d="M61.66,48.71V44.64a1.09,1.09,0,0,0-.9-1.25,1,1,0,0,0-.34,0,2,2,0,0,0-1.53.78v4.54H57.11V42h1.77v.86a3.17,3.17,0,0,1,2.35-1,2,2,0,0,1,2.2,1.77,1.53,1.53,0,0,1,0,.37v4.75Z" transform="translate(-0.02)"/><path class="g" d="M68.81,48.71v-9.3h3.66c2.91,0,4.93,1.85,4.93,4.64s-2,4.65-4.92,4.65Zm6.58-4.65a2.71,2.71,0,0,0-2.51-2.9H70.79V47h1.69a2.79,2.79,0,0,0,2.9-2.67,1.31,1.31,0,0,0,0-.28Z" transform="translate(-0.02)"/><path class="g" d="M78.38,40.19a1.05,1.05,0,1,1,1.05,1.05,1,1,0,0,1-1.05-1.05Zm.17,8.51V42h1.77v6.73Z" transform="translate(-0.02)"/><path class="g" d="M81.64,45.33A3.43,3.43,0,0,1,85,41.81h.14a3.36,3.36,0,0,1,3.4,3.32c0,.13,0,.25,0,.37v.42h-5a1.8,1.8,0,0,0,1.94,1.5,2.77,2.77,0,0,0,1.78-.65L88,47.94a4.22,4.22,0,0,1-2.77.93,3.41,3.41,0,0,1-3.59-3.22Zm3.48-2.08a1.55,1.55,0,0,0-1.64,1.44H86.8a1.54,1.54,0,0,0-1.64-1.43h0Z" transform="translate(-0.02)"/><path class="g" d="M89.64,50.43l.79-1.27a2.74,2.74,0,0,0,2.1.82,1.66,1.66,0,0,0,1.86-1.41,1.71,1.71,0,0,0,0-.32V47.6a2.62,2.62,0,0,1-2.09,1c-1.67,0-3-1.17-3-3.41s1.27-3.43,3-3.43a2.58,2.58,0,0,1,2.09,1V42h1.77v6.28c0,2.55-2,3.18-3.64,3.18A4.13,4.13,0,0,1,89.64,50.43Zm4.76-4.11V44.14a2,2,0,0,0-1.52-.75,1.86,1.86,0,0,0,0,3.71,2,2,0,0,0,1.53-.78Z" transform="translate(-0.02)"/><path class="g" d="M97.5,45.33a3.56,3.56,0,1,1,3.58,3.54h0a3.41,3.41,0,0,1-3.55-3.26Zm5.28,0a1.74,1.74,0,1,0-1.73,2,1.76,1.76,0,0,0,1.74-1.79A1.48,1.48,0,0,0,102.78,45.33Z" transform="translate(-0.02)"/></svg>