<svg xmlns="http://www.w3.org/2000/svg" xmlns:xlink="http://www.w3.org/1999/xlink" id="Layer_1" data-name="Layer 1" viewBox="0 0 4096 4096"><defs><style>.cls-1{fill:url(#linear-gradient)}.cls-2,.cls-3{fill:#fff;fill-rule:evenodd}.cls-3{stroke:#fff}</style><linearGradient id="linear-gradient" x2="4096" y1="2048" y2="2048" gradientUnits="userSpaceOnUse"><stop offset="0" stop-color="#137bf6"/><stop offset=".07" stop-color="#1c78f3"/><stop offset=".19" stop-color="#366eea"/><stop offset=".35" stop-color="#5f5fdc"/><stop offset=".53" stop-color="#984ac8"/><stop offset=".54" stop-color="#9c49c7"/><stop offset="1" stop-color="#fa152d"/></linearGradient></defs><rect width="4096" height="4096" class="cls-1"/><g id="Version-2"><g id="Home---SR"><g id="Group-Copy-2"><g id="Group-3-Copy-4"><g id="bt-4"><g id="ico-cloud-download"><path id="Path" d="M3170.51,1141.41c395.66,0,721.49,328.25,721.49,726.84,0,410.31-325.83,726.84-721.49,726.84H866.4c-360.75,0-663.31-246.19-663.31-621.34,0-363.42,302.56-656.5,663.31-656.5H971.13C982.77,989,1250.42,731.09,1576.25,731.09c151.28,0,290.92,58.62,395.66,152.4,104.73-222.74,314.19-363.42,570.21-363.42,337.47,0,616.75,281.36,628.39,621.34Z" class="cls-2"/><polygon id="Path-3" points="1701.55 2191.14 2430.28 2191.14 2430.28 2857.31 2739.22 2857.31 2047.55 3574.48 1355.88 2857.31 1701.55 2857.31 1701.55 2191.14" class="cls-3"/></g></g></g></g></g></g></svg>